<svg width="100%" height="100%" viewBox="0 0 40 40" xmlns="http://www.w3.org/2000/svg">
  <style>
    .logo-bg {
      fill: #ef4444;
    }
    .logo-icon {
      fill: white;
    }
  </style>
  
  <rect class="logo-bg" x="2" y="2" width="36" height="36" rx="8" ry="8" />
  
  <!-- Simple location pin icon -->
  <path class="logo-icon" d="M20,10 C15.5817,10 12,13.5817 12,18 C12,24 20,30 20,30 C20,30 28,24 28,18 C28,13.5817 24.4183,10 20,10 Z M20,21 C18.3431,21 17,19.6569 17,18 C17,16.3431 18.3431,15 20,15 C21.6569,15 23,16.3431 23,18 C23,19.6569 21.6569,21 20,21 Z" />
</svg>