<svg width="100%" height="100%" viewBox="0 0 300 200" xmlns="http://www.w3.org/2000/svg">
  <style>
    .placeholder {
      fill: #f3f4f6;
      stroke: #e5e7eb;
      stroke-width: 2;
    }
    .text {
      font-family: -apple-system, BlinkMacSystemFont, 'Segoe UI', Roboto, Oxygen, Ubuntu, Cantarell, 'Open Sans', 'Helvetica Neue', sans-serif;
      font-size: 14px;
      fill: #9ca3af;
      text-anchor: middle;
      dominant-baseline: middle;
    }
    .qr {
      fill: none;
      stroke: #9ca3af;
      stroke-width: 2;
    }
    .qr-dot {
      fill: #9ca3af;
    }
  </style>
  
  <rect class="placeholder" x="2" y="2" width="296" height="196" rx="8" />
  
  <!-- QR Code Representation -->
  <g transform="translate(125, 75)">
    <rect class="qr" x="-40" y="-40" width="80" height="80" />
    
    <!-- QR Code Pattern (simplified) -->
    <g>
      <!-- Position Detection Patterns -->
      <rect class="qr" x="-30" y="-30" width="20" height="20" />
      <rect class="qr-dot" x="-25" y="-25" width="10" height="10" />
      
      <rect class="qr" x="10" y="-30" width="20" height="20" />
      <rect class="qr-dot" x="15" y="-25" width="10" height="10" />
      
      <rect class="qr" x="-30" y="10" width="20" height="20" />
      <rect class="qr-dot" x="-25" y="15" width="10" height="10" />
      
      <!-- Data Dots (random pattern) -->
      <rect class="qr-dot" x="-15" y="-15" width="5" height="5" />
      <rect class="qr-dot" x="-5" y="-15" width="5" height="5" />
      <rect class="qr-dot" x="5" y="-15" width="5" height="5" />
      <rect class="qr-dot" x="15" y="-15" width="5" height="5" />
      
      <rect class="qr-dot" x="-15" y="-5" width="5" height="5" />
      <rect class="qr-dot" x="5" y="-5" width="5" height="5" />
      <rect class="qr-dot" x="15" y="-5" width="5" height="5" />
      
      <rect class="qr-dot" x="-15" y="5" width="5" height="5" />
      <rect class="qr-dot" x="-5" y="5" width="5" height="5" />
      <rect class="qr-dot" x="15" y="5" width="5" height="5" />
      
      <rect class="qr-dot" x="-15" y="15" width="5" height="5" />
      <rect class="qr-dot" x="5" y="15" width="5" height="5" />
      <rect class="qr-dot" x="15" y="15" width="5" height="5" />
    </g>
  </g>
  
  <text class="text" x="150" y="150">Placeholder Image</text>
  
  <!-- Dynamic dimensions display -->
  <text class="text" x="150" y="170">
    <tspan id="dimensions">300×200</tspan>
  </text>
  
  <script type="text/javascript">
    <![CDATA[
      function getParameterByName(name) {
        const url = window.location.href;
        name = name.replace(/[\[\]]/g, '\\$&');
        const regex = new RegExp('[?&]' + name + '(=([^&#]*)|&|#|$)');
        const results = regex.exec(url);
        if (!results) return null;
        if (!results[2]) return '';
        return decodeURIComponent(results[2].replace(/\+/g, ' '));
      }
      
      function updateDimensions() {
        const width = getParameterByName('width') || 300;
        const height = getParameterByName('height') || 200;
        
        const svg = document.querySelector('svg');
        svg.setAttribute('viewBox', `0 0 ${width} ${height}`);
        
        const dimensionsText = document.getElementById('dimensions');
        dimensionsText.textContent = `${width}×${height}`;
      }
      
      // Run on load
      updateDimensions();
    ]]>
  </script>
</svg>