<svg width="100%" height="100%" viewBox="0 0 80 80" xmlns="http://www.w3.org/2000/svg">
  <style>
    .qr {
      fill: none;
      stroke: #000000;
      stroke-width: 1;
    }
    .qr-dot {
      fill: #000000;
    }
    .qr-frame {
      fill: none;
      stroke: #000000;
      stroke-width: 2;
      rx: 10;
      ry: 10;
    }
  </style>
  
  <rect width="80" height="80" fill="white" />
  
  <!-- Rounded Frame -->
  <rect class="qr-frame" x="5" y="5" width="70" height="70" rx="10" ry="10" />
  
  <!-- QR Code Pattern (rounded style) -->
  <g>
    <!-- Position Detection Patterns -->
    <rect class="qr" x="15" y="15" width="15" height="15" rx="3" ry="3" />
    <rect class="qr-dot" x="19" y="19" width="7" height="7" rx="1.5" ry="1.5" />
    
    <rect class="qr" x="50" y="15" width="15" height="15" rx="3" ry="3" />
    <rect class="qr-dot" x="54" y="19" width="7" height="7" rx="1.5" ry="1.5" />
    
    <rect class="qr" x="15" y="50" width="15" height="15" rx="3" ry="3" />
    <rect class="qr-dot" x="19" y="54" width="7" height="7" rx="1.5" ry="1.5" />
    
    <!-- Data Dots (random pattern) -->
    <rect class="qr-dot" x="35" y="15" width="5" height="5" rx="1" ry="1" />
    <rect class="qr-dot" x="45" y="15" width="5" height="5" rx="1" ry="1" />
    <rect class="qr-dot" x="15" y="35" width="5" height="5" rx="1" ry="1" />
    <rect class="qr-dot" x="25" y="35" width="5" height="5" rx="1" ry="1" />
    <rect class="qr-dot" x="35" y="35" width="5" height="5" rx="1" ry="1" />
    <rect class="qr-dot" x="45" y="35" width="5" height="5" rx="1" ry="1" />
    <rect class="qr-dot" x="55" y="35" width="5" height="5" rx="1" ry="1" />
    <rect class="qr-dot" x="15" y="45" width="5" height="5" rx="1" ry="1" />
    <rect class="qr-dot" x="25" y="45" width="5" height="5" rx="1" ry="1" />
    <rect class="qr-dot" x="35" y="45" width="5" height="5" rx="1" ry="1" />
    <rect class="qr-dot" x="45" y="45" width="5" height="5" rx="1" ry="1" />
    <rect class="qr-dot" x="55" y="45" width="5" height="5" rx="1" ry="1" />
    <rect class="qr-dot" x="35" y="55" width="5" height="5" rx="1" ry="1" />
    <rect class="qr-dot" x="45" y="55" width="5" height="5" rx="1" ry="1" />
    <rect class="qr-dot" x="55" y="55" width="5" height="5" rx="1" ry="1" />
  </g>
</svg>