<svg width="100%" height="100%" viewBox="0 0 80 80" xmlns="http://www.w3.org/2000/svg">
  <style>
    .qr {
      fill: none;
      stroke: #000000;
      stroke-width: 1;
    }
    .qr-dot {
      fill: #000000;
    }
  </style>
  
  <rect width="80" height="80" fill="white" />
  
  <!-- QR Code Pattern (squares style) -->
  <g>
    <!-- Position Detection Patterns -->
    <rect class="qr" x="10" y="10" width="20" height="20" />
    <rect class="qr-dot" x="15" y="15" width="10" height="10" />
    
    <rect class="qr" x="50" y="10" width="20" height="20" />
    <rect class="qr-dot" x="55" y="15" width="10" height="10" />
    
    <rect class="qr" x="10" y="50" width="20" height="20" />
    <rect class="qr-dot" x="15" y="55" width="10" height="10" />
    
    <!-- Data Dots (random pattern) -->
    <rect class="qr-dot" x="35" y="15" width="5" height="5" />
    <rect class="qr-dot" x="45" y="15" width="5" height="5" />
    <rect class="qr-dot" x="15" y="35" width="5" height="5" />
    <rect class="qr-dot" x="25" y="35" width="5" height="5" />
    <rect class="qr-dot" x="35" y="35" width="5" height="5" />
    <rect class="qr-dot" x="45" y="35" width="5" height="5" />
    <rect class="qr-dot" x="55" y="35" width="5" height="5" />
    <rect class="qr-dot" x="65" y="35" width="5" height="5" />
    <rect class="qr-dot" x="15" y="45" width="5" height="5" />
    <rect class="qr-dot" x="25" y="45" width="5" height="5" />
    <rect class="qr-dot" x="35" y="45" width="5" height="5" />
    <rect class="qr-dot" x="45" y="45" width="5" height="5" />
    <rect class="qr-dot" x="55" y="45" width="5" height="5" />
    <rect class="qr-dot" x="35" y="55" width="5" height="5" />
    <rect class="qr-dot" x="45" y="55" width="5" height="5" />
    <rect class="qr-dot" x="55" y="55" width="5" height="5" />
    <rect class="qr-dot" x="65" y="55" width="5" height="5" />
  </g>
</svg>